<?xml version="1.0" standalone="no"?>
<!DOCTYPE svg PUBLIC "-//W3C//DTD SVG 1.1//EN" "http://www.w3.org/Graphics/SVG/1.1/DTD/svg11.dtd" >
<!--
2013-9-30: Created.
-->
<svg>
<metadata>
Created by iconfont
</metadata>
<defs>

<font id="iconfont" horiz-adv-x="1024" >
  <font-face
    font-family="iconfont"
    font-weight="500"
    font-stretch="normal"
    units-per-em="1024"
    ascent="896"
    descent="-128"
  />
    <missing-glyph />
    
    <glyph glyph-name="zhichu" unicode="&#58929;" d="M511.975619 779.897905l394.020571-392.850286L853.333333 387.047619l-48.761905 0 0-48.761905 0-367.250286L217.916952-28.964571 217.916952 338.285714l0 48.761905-48.761905 0L117.955048 387.047619 511.975619 779.897905M511.975619 848.749714 0 338.285714l169.155048 0 0-416.01219L853.333333-77.726476 853.333333 338.285714l170.593524 0L511.975619 848.749714 511.975619 848.749714zM292.571429 342.844952l435.809524 0 0-48.761905-435.809524 0 0 48.761905ZM292.571429 230.083048l435.809524 0 0-48.761905-435.809524 0 0 48.761905ZM487.619048 333.702095l48.761905 0 0-304.761905-48.761905 0 0 304.761905ZM364.660161 515.522219l164.570858-164.570858-34.479543-34.479543-164.570858 164.570858 34.479543 34.479543ZM659.321076 515.524047l34.479543-34.479543-164.570858-164.570858-34.479543 34.479543 164.570858 164.570858Z"  horiz-adv-x="1024" />

    
    <glyph glyph-name="shouru" unicode="&#58931;" d="M853.333333 432.761905 853.333333 848.749714 169.155048 848.749714 169.155048 432.761905 0 432.761905l511.975619-510.488381L1023.926857 432.761905 853.333333 432.761905zM117.955048 384l51.175619 0 48.761905 0 0 48.761905L217.892571 799.98781 804.571429 799.98781 804.571429 432.761905l0-48.761905 48.761905 0 52.638476 0L511.975619-8.850286 117.955048 384zM693.808762 692.857905 659.334095 727.332571 512 579.998476 364.665905 727.332571 330.191238 692.857905 468.382476 554.666667 292.571429 554.666667 292.571429 505.904762 487.619048 505.904762 487.619048 441.904762 292.571429 441.904762 292.571429 393.142857 487.619048 393.142857 487.619048 240.761905 536.380952 240.761905 536.380952 393.142857 728.380952 393.142857 728.380952 441.904762 536.380952 441.904762 536.380952 505.904762 728.380952 505.904762 728.380952 554.666667 555.617524 554.666667Z"  horiz-adv-x="1024" />

    
    <glyph glyph-name="2shenfenzhenghaoma" unicode="&#59526;" d="M651.377778 597.333333 853.333333 597.333333 853.333333 554.666667l-201.955556 0L651.377778 597.333333 651.377778 597.333333zM651.377778 597.333333M651.377778 446.577778 853.333333 446.577778l0-45.511111-201.955556 0L651.377778 446.577778 651.377778 446.577778zM651.377778 446.577778M702.577778 88.177778 702.577778 88.177778l-548.977778 0c-19.911111 0-36.977778 17.066667-36.977778 36.977778L116.622222 642.844444c0 19.911111 17.066667 36.977778 36.977778 36.977778l716.8 0c19.911111 0 36.977778-17.066667 36.977778-36.977778l0-355.555556c17.066667 0 42.666667-5.688889 56.888889-11.377778L964.266667 659.911111c0 42.666667-34.133333 76.8-76.8 76.8L133.688889 736.711111C91.022222 736.711111 56.888889 702.577778 56.888889 659.911111l0-554.666667c0-42.666667 34.133333-76.8 76.8-76.8l585.955556 0C705.422222 48.355556 702.577778 71.111111 702.577778 88.177778L702.577778 88.177778zM702.577778 88.177778M853.333333 290.133333l0 8.533333-201.955556 0 0-45.511111 119.466667 0C796.444444 273.066667 822.044444 281.6 853.333333 290.133333L853.333333 290.133333zM853.333333 290.133333M358.4 344.177778c68.266667 0 125.155556 56.888889 125.155556 125.155556 0 68.266667-56.888889 125.155556-125.155556 125.155556-68.266667 0-125.155556-56.888889-125.155556-125.155556C233.244444 401.066667 290.133333 344.177778 358.4 344.177778L358.4 344.177778zM358.4 548.977778c42.666667 0 79.644444-36.977778 79.644444-79.644444 0-42.666667-36.977778-79.644444-79.644444-79.644444-42.666667 0-79.644444 36.977778-79.644444 79.644444C278.755556 514.844444 315.733333 548.977778 358.4 548.977778L358.4 548.977778zM358.4 546.133333M358.4 341.333333c82.488889 0 156.444444-73.955556 156.444444-156.444444l45.511111 0c0 110.933333-91.022222 201.955556-201.955556 201.955556-110.933333 0-201.955556-91.022222-201.955556-201.955556l45.511111 0C201.955556 267.377778 275.911111 341.333333 358.4 341.333333L358.4 341.333333zM358.4 341.333333M514.844444 184.888889c0-5.688889 2.844444-11.377778 5.688889-17.066667 2.844444-2.844444 11.377778-5.688889 17.066667-5.688889 5.688889 0 11.377778 2.844444 17.066667 5.688889 2.844444 2.844444 5.688889 8.533333 5.688889 17.066667s-2.844444 11.377778-5.688889 17.066667c-2.844444 2.844444-11.377778 5.688889-17.066667 5.688889-5.688889 0-11.377778-2.844444-17.066667-5.688889C517.688889 196.266667 514.844444 190.577778 514.844444 184.888889L514.844444 184.888889zM514.844444 184.888889M156.444444 187.733333c0-5.688889 2.844444-11.377778 5.688889-17.066667 2.844444-2.844444 8.533333-5.688889 17.066667-5.688889 5.688889 0 11.377778 2.844444 17.066667 5.688889 2.844444 2.844444 5.688889 8.533333 5.688889 17.066667S199.111111 199.111111 196.266667 201.955556c-2.844444 2.844444-8.533333 5.688889-17.066667 5.688889-5.688889 0-11.377778-2.844444-17.066667-5.688889C159.288889 199.111111 156.444444 193.422222 156.444444 187.733333L156.444444 187.733333zM156.444444 187.733333M1024 199.111111c0 11.377778-11.377778 22.755556-22.755556 22.755556l0 0c-5.688889 0-11.377778-2.844444-14.222222-5.688889l-142.222222-142.222222-56.888889 56.888889c-2.844444 2.844444-8.533333 5.688889-17.066667 5.688889l0 0c-11.377778 0-22.755556-11.377778-22.755556-22.755556 0-5.688889 2.844444-11.377778 5.688889-17.066667l56.888889-56.888889 0 0c2.844444-2.844444 14.222222-14.222222 22.755556-17.066667 0 0 0 0 2.844444 0 0 0 2.844444 0 2.844444 0l0 0c2.844444 0 2.844444 0 5.688889 0l0 0c8.533333 0 17.066667 8.533333 17.066667 8.533333l150.755556 150.755556c0 0 0 0 0 0l0 0 0 0C1021.155556 187.733333 1024 193.422222 1024 199.111111z"  horiz-adv-x="1024" />

    
    <glyph glyph-name="baomingjiaofei" unicode="&#58926;" d="M527.541975 861.513558c-254.082836 0-460.799898-206.717062-460.799898-460.799898S273.459139-60.086238 527.541975-60.086238s460.799898 206.717062 460.799898 460.799898S781.62481 861.513558 527.541975 861.513558zM527.541975 8.180566c-216.449727 0-392.533095 176.083367-392.533095 392.533095s176.083367 392.533095 392.533095 392.533095 392.533095-176.083367 392.533095-392.533095S743.991702 8.180566 527.541975 8.180566zM667.652036 625.744833c-12.941753 12.945847-33.926694 12.945847-46.860261 0l-92.747357-92.748381-93.739964 93.737918c-12.9438 12.9438-33.914414 12.9438-46.862307 0-12.9438-12.945847-12.9438-33.930787 0-46.860261l107.343797-107.343797c-0.039909-0.662079-0.38374-1.224898-0.38374-1.898233l0-33.135678L411.55431 437.496401c-18.301831 0-33.137725-14.842033-33.137725-33.141818 0-18.301831 14.835893-33.139771 33.137725-33.139771l82.847893 0L494.402203 304.93834 411.55431 304.93834c-18.301831 0-33.137725-14.839986-33.137725-33.139771 0-18.301831 14.835893-33.139771 33.137725-33.139771l82.847893 0 0-99.416244c0-18.301831 14.83794-33.139771 33.139771-33.139771 18.299785 0 33.141818 14.83794 33.141818 33.139771L560.683792 238.658797l82.847893 0c18.297738 0 33.135678 14.83794 33.135678 33.139771 0 18.299785-14.83794 33.139771-33.135678 33.139771l-82.847893 0 0 66.277496 82.847893 0c18.297738 0 33.135678 14.83794 33.135678 33.139771 0 18.299785-14.83794 33.141818-33.135678 33.141818l-82.847893 0 0 33.134655c0 0.379647-0.201591 0.691755-0.214894 1.066285l107.183138 107.187231C680.599929 591.830419 680.599929 612.801033 667.652036 625.744833z"  horiz-adv-x="1024" />

    
    <glyph glyph-name="jiaolian" unicode="&#58890;" d="M900.888078-48.469666l-8.002254-15.283078-20.599154 0L145.305387-63.752744l-23.451108 0 0.448208 23.285333c0.896416 43.934628 5.482875 103.485933 20.87647 161.862481 15.94925 60.111053 43.375903 119.101585 90.167602 159.570275l6.712889 5.653767 8.676613-0.060375 102.255918 1.007957 0-47.402613-93.579305 0.781806c-35.036981-33.414017-56.587809-81.490989-69.684082-131.025149-11.867282-44.604894-16.790408-90.222861-18.694781-128.001279l686.015266 0.11154c1.178849 43.153846-11.419074 94.139054-26.919093 141.93871-15.615653 48.243771-37.893029 89.326445-64.701604 117.701702L656.527674 241.671411l0 45.89426 122.180713 0 9.402137-3.078105c35.766598-33.414017 64.86738-87.87028 83.844593-146.524145C891.822608 76.564026 906.653385 4.419915 900.888078-48.469666L900.888078-48.469666 900.888078-48.469666zM519.012717 12.64832l-61.117986 45.779649 39.567157 158.788469-14.941294 24.514323 1.173732 25.075095c28.545126 1.566682 36.94033 1.566682 65.481364 0l1.178849-25.075095-15.000646-24.514323 44.776809-158.729118L519.012717 12.64832 519.012717 12.64832 519.012717 12.64832zM695.871751 472.995917c-15.669888-54.06843-37.050848-94.53712-65.703421-124.533294-30.838356-32.350802-69.573565-51.715849-118.098745-61.903885l-3.916193-0.781806-3.920286 0.615007c-43.824111 7.331989-82.498946 25.915229-114.677832 58.598606-29.554106 29.947056-53.115732 71.584362-69.573565 127.053698-13.767562 7.442506-24.121374 19.869536-31.116695 36.492122-7.668657 18.301831-11.252275 42.197054-10.804067 70.520123l0.171915 10.914584 9.175987 6.15314c3.079128 2.12643 6.213515 3.974521 9.29162 5.653767-13.93743 85.073584-10.299577 157.499104 41.35999 205.741851 41.082674 29.831422 113.225761 9.459442 179.327248 19.310811 188.559517 28.207435 187.270151-67.049069 206.076472-228.519624 1.118474-0.675382 2.181689-1.345648 3.304256-2.131547l9.17701-6.152117 0.170892-10.914584c0.444115-27.759227-2.912329-51.210335-10.299577-69.40165C719.100802 493.142769 709.139939 480.661504 695.871751 472.995917L695.871751 472.995917 695.871751 472.995917zM673.2618 557.954891l-2.852978 9.628288-6.15621-0.39295-3.527336 18.413372c-2.741437 14.385639-6.883781 88.822978-12.369725 101.026928-16.286941-6.827499-34.588773 5.764284-51.1561 15.22168l-8.395204-26.025747-13.428847 1.733481 1.789763 15.841803-14.271028-22.615067-12.648065 2.51938 12.477172 33.580816c-66.712401-46.062082-181.676759-43.708478-196.844204-23.11444-2.348488-2.908236-2.796696-7.049556-4.081968-10.68741-3.134387-12.426007-6.661723-89.719394-9.739828-102.034884l-0.842181-4.530177-0.332575 0.054235c-0.674359-2.518357-1.289366-4.700045-1.959631-6.605442-5.709025 3.749394-17.294898 0.785899-27.704992-0.780783 1.007957-13.715373 3.301186-25.301246 7.16519-34.310434 3.804652-9.181103 9.06547-15.112186 15.670911-17.127076l11.302417-3.472078 3.079128-11.30344c14.552437-53.17099 35.484166-91.844801 61.732993-118.486578 24.459065-24.796756 53.845349-39.349193 87.198991-45.557592 37.948287 8.562003 68.061119 23.895223 91.845825 48.748261 25.189705 26.359344 43.934628 63.913659 57.983599 115.800399l2.912329 10.79895 10.68741 3.753487c6.493901 2.237971 11.644201 8.27957 15.393595 17.45965 3.637854 8.954953 5.931083 20.262486 6.883781 33.636075C686.806281 559.017082 680.482249 558.851307 673.2618 557.954891L673.2618 557.954891 673.2618 557.954891zM673.2618 557.954891"  horiz-adv-x="1024" />

    
    <glyph glyph-name="yunongtongqingshurushoujihaoma" unicode="&#58937;" d="M512.016 90.832c-27.312 0-49.472-22.208-49.472-49.472s22.16-49.456 49.472-49.456c27.264 0 49.44 22.176 49.44 49.456C561.456 68.656 539.28 90.832 512.016 90.832L512.016 90.832M756.688 869.328 267.312 869.328c-41.184 0-74.672-33.488-74.672-74.672l0-821.328c0-41.2 33.488-74.672 74.672-74.672l489.376 0c41.168 0 74.672 33.472 74.672 74.672L831.36 794.656C831.36 835.824 797.856 869.328 756.688 869.328L756.688 869.328M267.312 819.536l489.376 0c13.728 0 24.928-11.152 24.928-24.88l0-615.376L242.4 179.28 242.4 794.656C242.4 808.384 253.584 819.536 267.312 819.536L267.312 819.536M756.688-51.552 267.312-51.552c-13.728 0-24.912 11.184-24.912 24.912l0 151.952 539.216 0 0-151.952C781.616-40.352 770.416-51.552 756.688-51.552L756.688-51.552"  horiz-adv-x="1024" />

    
    <glyph glyph-name="icon1" unicode="&#58882;" d="M662.86194 463.07701c-133.315308 0-241.388722-108.073414-241.388722-241.388722s108.073414-241.388722 241.388722-241.388722S904.251685 88.374002 904.251685 221.689311 796.178271 463.07701 662.86194 463.07701zM662.86194 21.350516c-110.643959 0-200.338794 89.694835-200.338794 200.338794s89.694835 200.338794 200.338794 200.338794c110.643959 0 200.338794-89.694835 200.338794-200.338794S773.506922 21.350516 662.86194 21.350516zM681.628352 232.303043 681.628352 362.258837c0 10.708899-8.762571 19.47147-19.47147 19.47147-10.708899 0-19.47147-8.762571-19.47147-19.47147l0-138.65185c0-6.79373 3.532453-12.793374 8.844435-16.280802l82.892919-82.892919c7.572466-7.572466 19.963681-7.572466 27.53717 0 7.572466 7.572466 7.572466 19.963681 0 27.53717L681.628352 232.303043zM321.624115 799.725306l218.079854 0 0-72.414263-218.079854 0 0 72.414263ZM707.013509 499.423823 746.822167 499.423823 746.822167 778.080334 621.627816 778.080334 621.627816 737.695554 707.013509 737.695554ZM155.468864 737.695554 247.777223 737.695554 247.777223 778.080334 115.110691 778.080334 115.110691 126.151397 394.317741 126.151397 394.317741 165.381887 155.468864 165.381887ZM269.700535 613.079372l321.927013 0 0-42.692335-321.927013 0 0 42.692335ZM269.700535 499.423823l321.927013 0 0-42.692335-321.927013 0 0 42.692335ZM269.700535 374.80764l145.386228 0 0-42.692335-145.386228 0 0 42.692335Z"  horiz-adv-x="1024" />

    
    <glyph glyph-name="xingming" unicode="&#58892;" d="M512-128C229.2224-128 0 101.2224 0 384S229.2224 896 512 896s512-229.2224 512-512-229.2224-512-512-512z m0 998.4C243.3792 870.4 25.6 652.6208 25.6 384s217.7792-486.4 486.4-486.4 486.4 217.7792 486.4 486.4S780.6208 870.4 512 870.4zM512-128C229.2224-128 0 101.2224 0 384S229.2224 896 512 896s512-229.2224 512-512-229.2224-512-512-512z m0 998.4C243.3792 870.4 25.6 652.6208 25.6 384s217.7792-486.4 486.4-486.4 486.4 217.7792 486.4 486.4S780.6208 870.4 512 870.4zM596.4032 374.016a158.1056 158.1056 0 0 1 73.1136 133.504C669.5168 594.816 598.9888 665.6 512 665.6c-87.0144 0-157.5424-70.784-157.5424-158.08a158.1056 158.1056 0 0 1 73.1136-133.504C327.7568 337.5872 256 238.464 256 122.1632a19.712 19.712 0 1 1 39.3728 0c0 125.2864 97.1776 227.2512 216.6272 227.2512 119.424 0 216.6016-101.9648 216.6016-227.2512a19.712 19.712 0 1 1 39.3728 0c0 116.3008-71.7568 215.424-171.5712 251.8528zM512 388.9408a118.3744 118.3744 0 0 0-118.1696 118.5536c0 65.4848 52.9152 118.5792 118.1696 118.5792 65.2288 0 118.144-53.0944 118.144-118.5792S577.2288 388.9408 512 388.9408z"  horiz-adv-x="1024" />

    
    <glyph glyph-name="jichuguanli" unicode="&#58964;" d="M153.6 716.8v-665.6h716.8v665.6h-716.8z m655.36-604.16h-593.92v435.2h593.92v-435.2z m-240.64 215.04h71.68v51.2h97.28v40.96h-97.28v51.2h-71.68v-51.2h-276.48v-40.96h276.48v-51.2z m-133.12-20.48h-71.68v-51.2h-76.8v-40.96h76.8v-51.2h71.68v51.2h296.96v40.96h-296.96v51.2z"  horiz-adv-x="1024" />

    
    <glyph glyph-name="peixun" unicode="&#58884;" d="M657.13 448.559c-191.44 0-293.84-100.177-298.292-104.627-4.452-4.45-6.68-8.905-6.68-15.58v-238.189c0-4.455 2.228-8.91 4.452-13.36 2.228-4.45 73.462-84.59 284.939-84.59 209.249 0 311.649 77.91 316.104 80.14 4.455 4.45 8.905 8.9 8.905 15.58V328.351c0 6.675-2.23 11.13-6.68 15.58-4.448 4.45-111.303 104.628-302.748 104.628z m267.13-345.047c-26.71-17.805-120.205-66.78-282.71-66.78-160.276 0-229.286 48.975-247.093 64.56V321.671c22.26 17.81 113.53 84.59 262.674 84.59 149.15 0 244.869-66.78 269.359-86.82v-215.929h-2.23z m-505.32 13.36c0-71.235 211.48-73.46 233.74-73.46 24.49 0 233.739 2.225 233.739 73.46s-211.48 73.46-233.74 73.46c-24.486 0-233.738-2.225-233.738-73.46z m233.74-31.165c-106.852 0-175.86 20.035-191.442 33.39 15.582 13.355 84.59 33.395 191.442 33.395 106.85 0 175.86-20.04 191.44-33.395-15.58-15.585-84.59-33.39-191.44-33.39z m605.494 414.052L670.49 791.375c-6.68 2.225-11.13 2.225-17.81 0L11.569 504.211c-6.677-4.452-13.357-11.132-11.13-20.035 0-8.905 6.677-15.585 13.355-17.81l155.827-57.877c-2.227-2.227-2.227-4.452-2.227-8.905v-102.402c-20.035-8.9-35.617-28.94-35.617-53.42 0-17.81 6.68-33.395 20.035-44.525 0-2.225-2.225-2.225-2.225-4.455L125.1 76.802c-2.225-6.68 0-13.36 4.452-17.81 4.452-4.45 8.905-6.68 15.582-6.68h89.042c6.68 0 13.357 2.23 15.582 8.91 4.452 4.45 4.452 11.13 4.452 17.805l-26.712 117.985c15.582 11.13 24.487 28.94 24.487 48.97 0 26.715-17.81 48.98-42.295 57.88v93.497l117.982-42.297c2.225 0 4.45-2.225 6.677-2.225 6.677 0 11.13 2.225 15.582 6.675 2.225 2.23 126.887 129.115 304.977 129.115 180.31 0 311.649-129.115 313.874-129.115 6.675-6.675 15.585-6.675 22.26-4.45l267.129 111.305c6.68 2.228 13.355 11.13 13.355 17.81 0.003 4.449-4.447 11.129-13.352 15.582zM171.847 92.382l17.81 82.37 17.807-80.14h-35.617v-2.23z m20.034 133.57c-8.905 0-17.807 8.9-17.807 17.81 0 8.9 8.902 17.805 17.807 17.805s17.81-8.905 17.81-17.805c0-11.135-6.68-17.81-17.81-17.81z m794.708 169.179c-35.615 31.165-162.5 131.34-331.68 131.34-169.186 0-291.618-100.175-325.011-133.565L76.124 486.401l585.46 262.677L1200.3 481.949l-213.71-86.818z"  horiz-adv-x="1273" />

    
    <glyph glyph-name="ZHicon-" unicode="&#58918;" d="M896 227.84V358.4c0 56.32-46.08 102.4-102.4 102.4H537.6v76.8c56.32 0 102.4 46.08 102.4 102.4V691.2c0 56.32-46.08 102.4-102.4 102.4h-51.2c-56.32 0-102.4-46.08-102.4-102.4v-51.2c0-56.32 46.08-102.4 102.4-102.4v-76.8H230.4c-56.32 0-102.4-46.08-102.4-102.4v-130.56c-43.52-10.24-76.8-51.2-76.8-99.84v-51.2c0-56.32 46.08-102.4 102.4-102.4h51.2c56.32 0 102.4 46.08 102.4 102.4v51.2c0 56.32-46.08 102.4-102.4 102.4H179.2v128c0 28.16 23.04 51.2 51.2 51.2h256v-179.2c-56.32 0-102.4-46.08-102.4-102.4v-51.2c0-56.32 46.08-102.4 102.4-102.4h51.2c56.32 0 102.4 46.08 102.4 102.4v51.2c0 56.32-46.08 102.4-102.4 102.4v179.2h256c28.16 0 51.2-23.04 51.2-51.2v-128h-25.6c-56.32 0-102.4-46.08-102.4-102.4v-51.2c0-56.32 46.08-102.4 102.4-102.4h51.2c56.32 0 102.4 46.08 102.4 102.4v51.2c0 48.64-33.28 87.04-76.8 99.84zM435.2 640V691.2c0 28.16 23.04 51.2 51.2 51.2h51.2c28.16 0 51.2-23.04 51.2-51.2v-51.2c0-28.16-23.04-51.2-51.2-51.2h-51.2c-28.16 0-51.2 23.04-51.2 51.2z m-179.2-512v-51.2c0-28.16-23.04-51.2-51.2-51.2H153.6c-28.16 0-51.2 23.04-51.2 51.2v51.2c0 28.16 23.04 51.2 51.2 51.2h51.2c28.16 0 51.2-23.04 51.2-51.2z m332.8 0v-51.2c0-28.16-23.04-51.2-51.2-51.2h-51.2c-28.16 0-51.2 23.04-51.2 51.2v51.2c0 28.16 23.04 51.2 51.2 51.2h51.2c28.16 0 51.2-23.04 51.2-51.2z m332.8-51.2c0-28.16-23.04-51.2-51.2-51.2h-51.2c-28.16 0-51.2 23.04-51.2 51.2v51.2c0 28.16 23.04 51.2 51.2 51.2h51.2c28.16 0 51.2-23.04 51.2-51.2v-51.2z"  horiz-adv-x="1024" />

    
    <glyph glyph-name="ccgl-dizhichaxun-6" unicode="&#59222;" d="M672.174-66.003h-320.343c-159.828 0-289.831 130-289.831 289.829v320.343c0 159.827 130.003 289.831 289.831 289.831h320.343c159.829 0 289.829-130.004 289.829-289.831v-320.343c0-159.829-130-289.829-289.829-289.829zM351.831 788.224c-134.565 0-244.056-109.49-244.056-244.057v-320.34c0-134.56 109.49-244.064 244.056-244.064h320.343c134.56 0 244.056 109.494 244.056 244.064v320.343c0 134.565-109.494 244.056-244.056 244.056l-320.343-0.001zM846.012 153.233l-127.398 126.993c-16.013 15.961-40.403 18.862-59.326 8.706l-24.025 23.946c36.765 45.716 58.601 103.771 58.601 166.902 0 149.124-121.206 269.946-270.442 269.946-149.602 0-270.809-120.821-270.809-269.946 0-148.762 121.208-269.586 270.809-269.586 63.332 0 121.568 21.771 167.435 58.421l24.021-23.95c-10.191-18.865-7.282-43.177 8.737-59.141l127.398-126.989c19.653-19.596 51.684-19.596 71.341 0l23.661 23.581c19.653 19.596 19.653 51.526 0 71.117zM202.844 479.78c0 121.549 98.64 219.877 220.577 219.877 121.568 0 220.577-98.328 220.577-219.877 0-121.551-99.008-219.509-220.577-219.509-121.937 0-220.577 98.324-220.577 219.509zM478.782 346.368c-107.921 0-195.461 87.222-195.461 194.842 0 2.865 0.29 5.659 0.437 8.526-14.232-23.003-22.604-50.034-22.604-78.99 0-83.196 67.665-150.607 151.091-150.607 32.212 0 62.022 10.12 86.553 27.247-6.547-0.69-13.244-1.015-20.017-1.015z"  horiz-adv-x="1024" />

    
    <glyph glyph-name="daoru" unicode="&#59838;" d="M151.552-128c-83.456 0-151.552 68.096-151.552 151.552V728.064c0 88.064 73.216 167.936 154.112 167.936h404.48v-93.184h-404.48c-32.768 0-60.928-27.648-60.928-60.928l-1.024-718.336c0-32.768 26.624-59.392 59.392-59.392l718.336 1.024c32.768 0 60.928 27.648 60.928 60.928v404.48H1024v-404.48c0-80.384-80.384-154.112-167.936-154.112h-704.512z m250.88 353.792c-13.312 0-26.624 5.12-35.84 14.336-8.704 8.704-13.312 19.456-13.312 31.232v251.904c0 25.6 21.504 46.592 48.128 46.592 13.312 0 25.6-5.12 34.816-14.336 8.704-8.704 13.824-20.48 13.824-32.768l1.024-144.896 489.984 502.272c9.216 8.192 21.504 13.312 34.304 13.312s25.088-4.608 34.304-13.312c9.728-8.704 14.848-20.48 14.848-32.768 0-12.288-5.12-24.064-14.336-32.256l-484.864-497.664 137.728 1.024c13.312 0 25.6-5.12 34.816-14.336 8.704-8.704 13.824-20.48 13.824-32.768 0-25.6-21.504-46.592-48.128-46.592h-261.12z"  horiz-adv-x="1024" />

    
    <glyph glyph-name="lilun" unicode="&#58885;" d="M30.72 363.52l56.32 51.2L512 179.2l424.96 235.52 56.32-51.2-481.28-276.48-481.28 276.48z m0 153.6L512 793.6l481.28-276.48-481.28-276.48L30.72 517.12zM512 25.6l424.96 235.52 56.32-51.2-481.28-276.48-481.28 276.48 56.32 51.2L512 25.6z"  horiz-adv-x="1024" />

    
    <glyph glyph-name="saoma" unicode="&#58919;" d="M892.668424 877.098493h-105.703699c-7.87633 0.002408-15.428745-3.125967-20.997928-8.695151s-8.699967-13.122802-8.695151-20.997928a29.666587 29.666587 0 0 1 29.691874-29.685853h105.7037c30.27107 0 54.885053-24.645291 54.885053-54.909137v-109.271589a29.6702 29.6702 0 0 1 29.694283-29.68465 29.6702 29.6702 0 0 1 29.685854 29.68465v109.271589c-0.009633 63.032317-51.262977 114.288069-114.263986 114.288069zM51.51344 623.854185c16.393267 0.003612 29.681037 13.292587 29.685854 29.68465v109.271589c0 30.27107 24.615188 54.909136 54.886257 54.909137h108.753806c16.210237 0.263708 29.213828 13.480434 29.211419 29.693078-0.002408 16.212645-13.008408 29.426962-29.218644 29.685854h-108.747785c-63.001009 0-114.26519-51.255752-114.26519-114.288069v-109.271589a29.682241 29.682241 0 0 1 29.694283-29.68465z m193.318692-673.813371h-108.747785c-30.263845 0-54.886257 24.638067-54.886258 54.909136v104.315318c-0.2613 16.211441-13.476821 29.216236-29.689466 29.216236-16.212645 0-29.428166-13.004795-29.689466-29.216236v-104.315318c0-63.032317 51.255752-114.288069 114.257965-114.288069h108.75501a29.6702 29.6702 0 0 1 29.68465 29.693079 29.667792 29.667792 0 0 1-29.68465 29.685854z m732.415628 188.909103a29.671404 29.671404 0 0 1-29.694282-29.685854v-104.315317c0-30.27107-24.613984-54.909136-54.885054-54.909136h-105.703699a29.677425 29.677425 0 0 1-29.691875-29.693079 29.65575 29.65575 0 0 1 8.690334-21.002744 29.660567 29.660567 0 0 1 21.001541-8.690335h105.703699c63.001009 0 114.255557 51.255752 114.255557 114.288069v104.322542A29.676221 29.676221 0 0 1 998.238464 130.258379a29.672608 29.672608 0 0 1-20.990704 8.691538zM22.983568 383.879585c0.004817-16.39688 13.296199-29.689466 29.693078-29.693079h923.413928a29.666587 29.666587 0 0 1 29.685854 29.693079 29.661771 29.661771 0 0 1-8.687925 21.000337 29.662975 29.662975 0 0 1-20.997929 8.692742H52.669421c-16.395675-0.003612-29.685854-13.297403-29.685853-29.693079z"  horiz-adv-x="1024" />

    
    <glyph glyph-name="zidian" unicode="&#58880;" d="M897.6-41.6c-43.2 0-78.4 28.8-78.4 62.4 0 35.2 35.2 62.4 78.4 62.4 19.2 0 33.6 12.8 33.6 27.2V836.8c0 14.4-16 27.2-33.6 27.2H254.4c-81.6 0-147.2-52.8-147.2-116.8v-724.8c0-65.6 65.6-116.8 147.2-116.8h644.8c19.2 0 33.6 12.8 33.6 27.2 0 14.4-16 25.6-35.2 25.6zM288 809.6h576v-670.4H288V809.6z m-113.6-62.4c0 24 17.6 46.4 44.8 56V136c-16-3.2-30.4-8-44.8-14.4V747.2z m598.4-788.8H254.4c-43.2 0-78.4 28.8-78.4 62.4 0 35.2 35.2 62.4 78.4 62.4h520c-14.4-19.2-24-40-24-62.4 0-20.8 8-43.2 22.4-62.4z m0 0"  horiz-adv-x="1024" />

    
    <glyph glyph-name="xueyuan" unicode="&#59097;" d="M1212.21504 122.33472c-0.00512 111.2-68.86912 206.25408-166.24768 245.02656 47.16416 31.51104 78.24896 85.20192 78.24896 146.18112 0 83.25504-57.91488 152.93056-135.648 171.0528-0.71936 0.16768-1.40032 0.08064-2.0544-0.17024-0.88448 0.0768-1.73568 0.26496-2.64064 0.26496-16.608 0-30.06848-13.46304-30.06848-30.07104 0-14.99904 11.01184-27.32928 25.376-29.59744 2.5536-1.0368 5.90464-1.8368 6.04032-1.8816 45.01376-15.27424 77.41056-57.84448 77.41056-108.02432 0-55.968-40.29824-102.46656-93.45536-112.18944-0.07936-0.01408-0.1408-0.1536-0.21504-0.18816-17.68448-1.11616-31.7248-15.66592-31.7248-33.63328 0-18.23616 14.45376-32.99712 32.51456-33.71264 0.12544-0.06272 0.23552-0.25728 0.3648-0.27008 106.89792-10.8928 182.68032-101.96224 182.68032-212.79104 0-16.40832 13.30176-29.71008 29.71008-29.71008 16.01024 0 28.97024 12.68992 29.5936 28.54912 0.01408 0.1472 0.11776 0.27264 0.11776 0.4224 0 0.064-0.0192 0.12288-0.0192 0.18688h0.00384c0.00128 0.18304 0.01408 0.36096 0.01408 0.544v0.0064 0.00256l-0.00128 0.00256zM856.18688 362.42304c56.31744 37.73312 93.42336 101.91104 93.42336 174.79296 0 116.14848-94.1568 210.30528-210.30528 210.30528-116.14976 0-210.30656-94.1568-210.30656-210.30528 0-72.8832 37.10592-137.05984 93.42208-174.79296C505.99296 315.96032 423.68 202.2528 423.68 69.248c0-7.48416 0.4224-14.85824 0.99456-22.19392h0.0576c0-16.1856 13.12128-29.30688 29.30688-29.30688 16.18688 0 29.30688 13.12128 29.30688 29.30688 0 0.9152-0.18688 1.77792-0.2688 2.67136-0.56576 6.44864-1.05088 12.9216-1.05088 19.52256 0 142.09152 115.18592 257.27744 257.27616 257.27744 142.09152 0 257.27872-115.18592 257.27872-257.27744 0-6.85568-0.4864-13.5872-1.08544-20.28416-0.0128-0.34432-0.1024-0.6656-0.1024-1.01248 0-0.10752 0.03072-0.20608 0.032-0.31104-0.0192-0.19328-0.01408-0.39296-0.032-0.58752h0.09088c0.48512-15.75936 13.3376-28.40832 29.216-28.40832s28.73216 12.64896 29.21728 28.40832h0.06016c0.5504 7.33824 0.9472 14.71488 0.9472 22.19392 0.00384 133.00608-82.3104 246.7136-198.73792 293.17632z m-116.88064 23.72736c-83.43168 0-151.06304 67.63392-151.06304 151.06432 0 83.42912 67.63136 151.06176 151.06304 151.06176 83.4304 0 151.06176-67.63264 151.06176-151.06176 0-83.4304-67.63264-151.06432-151.06176-151.06432z"  horiz-adv-x="1638" />

    
    <glyph glyph-name="shenhe2" unicode="&#58920;" d="M504.5 789.3c21.6 0 44.3-3.8 67.5-11.3 76.6-24.7 123.6-78.6 139.9-160 10.9-54.6-0.8-104.7-35.7-153.1-9-12.5-19.1-24.4-29.6-36.5-33.7-39.1-32.9-78 2.5-115.6 3.3-3.5 6.7-7 10.2-10.4 6.8-6.8 13.2-13.3 17.8-19.5 6.5-8.7 4.7-17.2 3.7-20.4-1.1-3.4-4.1-9.4-11.5-11.7-2.2-0.7-5-1.1-7.7-1.1H358.3c-11.6 0-14.8 3.9-17.5 8.6-4.6 8.1-4.6 14.4 0.2 22.6 2 3.4 6.3 8.2 10.6 12.8 1.4 1.5 2.8 3 4.3 4.7 2.2 2.5 5 5.2 7.9 8.1 3.7 3.6 7.8 7.7 12.1 12.6 28.6 32.8 29.1 69.7 1.6 103.6-4.3 5.3-8.7 10.4-13.1 15.5s-8.5 9.8-12.2 14.4c-28.6 36.1-44 71.6-47 108.7-5.8 69 14.5 124.2 62 168.8 41.7 39.3 87.9 59.2 137.3 59.2m0 41.5c-60.7 0-116.5-24.1-165.7-70.4-57.9-54.4-81.5-123.6-74.9-202.5 4.1-49.5 25.3-92.4 55.9-131 8.2-10.3 17.2-20 25.5-30.3 14.7-18.1 14.6-32.7-0.6-50.2-6.3-7.1-13.6-13.4-19.9-20.5-6.9-7.7-14.5-15.3-19.7-24.2-12.2-20.9-12.3-43-0.4-64 11.6-20.4 30.2-29.6 53.6-29.6h151v0.1-0.1h152.2c6.6 0 13.5 0.9 19.9 2.9 39.9 12.4 54.9 61.5 29 96.5-9.1 12.2-20.7 22.6-31.2 33.7-21 22.3-21.2 36.8-1.2 60 11 12.8 21.9 25.6 31.8 39.3 40.2 55.8 56.3 117.9 42.8 185.5-19 95.4-75.1 161.4-167.8 191.4-27.6 9-54.4 13.4-80.3 13.4zM814.1 122c13.3 0 18.9-5.7 19-19 0-12.2 0.1-24.3 0-36.5H187c-0.1 14.4-0.1 29.2-0.1 38.6 0.1 11.1 6 16.9 17.3 16.9h609.9m0 41.5H204.2c-34 0-58.6-24.4-58.8-58.2-0.1-14.7 0.1-41.4 0.2-60 0.1-11.3 9.3-20.4 20.6-20.4H854c11.4 0 20.6 9.2 20.6 20.6 0 19.3 0.1 38.5 0 57.6-0.1 36.1-24.3 60.4-60.5 60.4zM186.8-40.5h646.6-646.6zM833.3-61.2H186.8c-11.5 0-20.8 9.3-20.8 20.8s9.3 20.8 20.8 20.8h646.1c11.5 0 21-9.3 21-20.8s-9.2-20.8-20.6-20.8z"  horiz-adv-x="1024" />

    
    <glyph glyph-name="kaoshi" unicode="&#58883;" d="M81.408 767.488H824.32s49.152 26.624-4.608 53.76H58.88s-17.92 2.048-26.624-17.92c2.048 0 0-794.112 0-794.112s8.704-29.184 31.232-29.184H824.32s37.888-4.608 40.448 15.872c2.048 2.048 0 460.8 0 460.8s-19.968 37.888-49.152 0v-420.352H79.36l2.048 731.136zM200.192 542.72h284.16c12.8 0 23.552-10.752 23.552-23.552s-10.752-23.552-23.552-23.552H200.192c-12.8 0-23.552 10.752-23.552 23.552s10.752 23.552 23.552 23.552zM953.344 620.032l-148.992-152.064L711.68 445.44V531.968l169.984 168.448m13.824-77.312L773.12 502.272l-31.232-3.072-8.704-14.848 46.08 1.536L906.24 615.424l-10.752 7.68zM890.368 706.56l69.632-77.824L1018.88 687.104l-66.048 69.12-22.528-4.608-39.936-45.056zM202.752 384h547.84c14.336 0 25.6-11.264 25.6-25.6s-11.264-25.6-25.6-25.6h-547.84c-14.336 0-25.6 11.264-25.6 25.6s11.264 25.6 25.6 25.6zM202.752 208.384h547.84c14.336 0 25.6-11.264 25.6-25.6s-11.264-25.6-25.6-25.6h-547.84c-14.336 0-25.6 11.264-25.6 25.6-0.512 13.824 11.264 25.6 25.6 25.6z"  horiz-adv-x="1024" />

    
    <glyph glyph-name="chaxun" unicode="&#59033;" d="M727.637333 230.826667l217.429334-217.429334a42.666667 42.666667 0 1 0-60.330667-60.330666l-217.173333 217.173333a384 384 0 1 0 60.117333 60.586667zM426.666667 170.666667a298.666667 298.666667 0 1 1 0 597.333333 298.666667 298.666667 0 0 1 0-597.333333z"  horiz-adv-x="1024" />

    
    <glyph glyph-name="bp-" unicode="&#59230;" d="M288 384c-19.2 0-32-12.8-32-32s12.8-32 32-32h256c19.2 0 32 12.8 32 32V608c0 19.2-12.8 32-32 32s-32-12.8-32-32v-179.2L121.6 825.6c-12.8 6.4-38.4 6.4-51.2 0-6.4-12.8-6.4-38.4 0-51.2l396.8-390.4H288z m0 0M896 832H512c-19.2 0-32-12.8-32-32s12.8-32 32-32h352c19.2 0 32-12.8 32-32v-704c0-19.2-12.8-32-32-32H160c-19.2 0-32 12.8-32 32V384c0 19.2-12.8 32-32 32s-32-12.8-32-32v-384c0-32 32-64 64-64h768c32 0 64 32 64 64V768c0 38.4-32 64-64 64z m0 0"  horiz-adv-x="1024" />

    
    <glyph glyph-name="qita" unicode="&#58958;" d="M512 660.48c-152.696 0-276.48-123.784-276.48-276.48 0-152.696 123.784-276.48 276.48-276.48 152.696 0 276.48 123.784 276.48 276.48 0 152.696-123.784 276.48-276.48 276.48z m0 61.44c186.628 0 337.92-151.292 337.92-337.92 0-186.628-151.292-337.92-337.92-337.92-186.628 0-337.92 151.292-337.92 337.92 0 186.628 151.292 337.92 337.92 337.92zM368.64 343.04c22.622 0 40.96 18.338 40.96 40.96s-18.338 40.96-40.96 40.96-40.96-18.338-40.96-40.96 18.338-40.96 40.96-40.96z m286.72 0c22.622 0 40.96 18.338 40.96 40.96s-18.338 40.96-40.96 40.96S614.4 406.622 614.4 384s18.338-40.96 40.96-40.96z m-143.36 0c22.622 0 40.96 18.338 40.96 40.96s-18.338 40.96-40.96 40.96-40.96-18.338-40.96-40.96 18.338-40.96 40.96-40.96z"  horiz-adv-x="1024" />

    
    <glyph glyph-name="fenqi" unicode="&#58916;" d="M883.2-128H140.8C64-128 0-64 0 12.8V691.2C0 768 64 832 140.8 832H192c19.2 0 32-12.8 32-32v-96c0-38.4 25.6-64 64-64s64 25.6 64 64V800c-6.4 19.2 12.8 32 25.6 32h256c19.2 0 32-12.8 32-32v-96c0-38.4 25.6-64 64-64s64 25.6 64 64V800c0 19.2 12.8 32 32 32h57.6C960 832 1024 768 1024 691.2v-684.8c0-70.4-64-134.4-140.8-134.4zM140.8 768C96 768 64 736 64 691.2v-684.8C64-32 96-64 140.8-64h748.8c38.4 0 76.8 32 76.8 76.8V691.2C960 736 928 768 883.2 768h-25.6v-64c0-70.4-57.6-128-128-128s-128 57.6-128 128v64h-192v-64c0-70.4-57.6-128-128-128s-128 57.6-128 128v64h-12.8zM281.6 672c-12.8 0-32 12.8-32 32V864c0 19.2 19.2 32 32 32s32-12.8 32-32v-160c0-19.2-12.8-32-32-32zM729.6 672c-19.2 0-32 12.8-32 32V864c0 19.2 12.8 32 32 32s32-12.8 32-32v-160c0-19.2-12.8-32-32-32zM192 480h96v-96h-96v96zM352 480h96v-96h-96v96zM512 480h96v-96h-96v96zM672 480h96v-96h-96v96zM192 320h96v-96h-96v96zM352 320h96v-96h-96v96zM512 320h96v-96h-96v96zM672 320h96v-96h-96v96zM192 160h96v-96h-96v96zM352 160h96v-96h-96v96z"  horiz-adv-x="1024" />

    
    <glyph glyph-name="shenhe" unicode="&#59129;" d="M515.099395-41.516891c-99.680531 0-342.533099 190.862722-342.533099 358.230033v347.932044c42.29174 4.799063 111.178285 16.296817 183.064245 45.291155 73.085725 29.59422 129.274751 62.187854 159.468854 80.984182 30.194103-19.296231 85.783245-51.389963 159.468853-80.984182 71.88596-28.994337 140.772505-40.492091 183.064246-45.291155v-347.932044c-0.09998-167.267331-243.452451-358.230033-342.533099-358.230033zM943.915641 316.713142V746.829135l-42.291739 0.599883c-1.199766 0-96.081234 1.799649-194.46202 41.691857-100.880297 40.492091-166.067565 87.582894-166.767428 88.182777 0 0-17.496583 18.696348-25.994923 18.696348-7.898457 0-25.39504-18.696348-25.39504-18.696348-0.599883-0.599883-65.887131-47.090803-166.767428-88.182777-98.480765-39.892209-193.262253-41.691857-194.462019-41.691857l-42.791642-0.599883v-430.115993c0-216.257762 279.045499-444.613161 428.916227-444.613162 150.970514 0 430.016012 228.355399 430.016012 444.613162zM651.57274 276.820933v46.49092H543.493849v-46.49092h108.078891z m0 144.971686H543.493849v-47.690686h108.078891v47.690686z m-272.446788-144.971686h106.279242v46.49092H379.125952v-46.49092z m0 144.971686v-47.690686h106.279242v47.690686H379.125952z m0-197.461434v-28.994337h-56.788908V474.98223h163.06815v45.291154h57.988674v-45.291154h164.8678v-277.845733h-56.788909v27.194688h-107.97891V114.952548h-57.988674V224.331185H379.125952z m370.927553 262.748682h-56.788908v54.98926H329.035735v-57.988674h-56.788908V594.558875h205.959773c-4.19918 10.897872-9.698106 21.795743-14.497168 31.393869l61.587971 10.297988c4.19918-12.097637 9.098223-25.994923 13.297403-41.691857h210.858816v-107.479008h0.599883z"  horiz-adv-x="1024" />

    
    <glyph glyph-name="shoufeiguanli" unicode="&#58906;" d="M889.8393 896H134.122878A73.280673 73.280673 0 0 1 60.993925 822.871047v-846.444874a61.749967 61.749967 0 0 1 39.598873-57.653532l110.603749-42.633269a61.749967 61.749967 0 0 1 47.033144 1.062039l95.583486 41.57123a61.749967 61.749967 0 0 0 51.129579-0.910319L485.80942-120.522792a61.901686 61.901686 0 0 1 52.039898 0l86.176858 39.143713a61.749967 61.749967 0 0 0 52.191618 0L758.905096-121.736551a61.901686 61.901686 0 0 1 48.095183-2.124077l115.610502 42.936709a61.749967 61.749967 0 0 1 40.205752 57.956971V822.871047A73.280673 73.280673 0 0 1 889.8393 896m-51.129579-918.511789l-25.64065-9.558348A61.749967 61.749967 0 0 0 764.973889-29.4909l-79.197746 37.323075-2.730957 0.45516a61.749967 61.749967 0 0 1-54.922575 0l-3.792995-1.668918-88.907815-37.323076a61.749967 61.749967 0 0 0-49.005501 0l-84.50794 37.474796-2.275797 1.062038a61.749967 61.749967 0 0 1-54.922575 0l-3.489556-1.668918-90.121573-38.233394a61.901686 61.901686 0 0 0-47.033144 0l-60.687928 24.275171h-0.30344V812.857539H878.763753v-777.412356a61.749967 61.749967 0 0 0-40.054032-57.805252M743.733114 701.040032h-103.776357l-121.982735-230.765846-127.899808 230.765846h-110.452029l147.623385-262.020129H320.434817v-73.584113h147.623384v-53.860536H320.434817v-74.190991h148.230264v-127.444649h99.679921v126.989489h154.754216v74.039272h-154.754216v53.860536h154.754216v74.190992h-126.989489L743.733114 701.040032z"  horiz-adv-x="1024" />

    
    <glyph glyph-name="jineng-xiaoicon" unicode="&#58907;" d="M108.8 736C192 736 320 774.4 486.4 857.6c19.2 6.4 38.4 6.4 57.6 0 185.6-83.2 313.6-128 377.6-128 0 0 140.8-672-403.2-832C-12.8 57.6 108.8 736 108.8 736z m230.4-217.6h-6.4c-12.8 0-25.6-6.4-25.6-19.2 0-19.2 12.8-38.4 32-44.8l153.6-51.2c12.8-6.4 25.6-6.4 38.4 0l153.6 51.2c19.2 6.4 32 25.6 32 44.8v6.4c-6.4 12.8-19.2 19.2-32 12.8l-153.6-51.2c-12.8-6.4-25.6-6.4-38.4 0l-153.6 51.2z m0-172.8h-6.4c-12.8 6.4-25.6-6.4-25.6-19.2 0-19.2 12.8-38.4 32-44.8l153.6-51.2c12.8-6.4 25.6-6.4 38.4 0l153.6 51.2c19.2 6.4 32 25.6 32 44.8v6.4c-6.4 12.8-19.2 19.2-32 12.8l-153.6-51.2c-12.8-6.4-25.6-6.4-38.4 0l-153.6 51.2z"  horiz-adv-x="1024" />

    
    <glyph glyph-name="jiashi" unicode="&#58886;" d="M784.6 483.9C700.8 705.1 509 683 509 683c-223.5-14.2-272.5-199-272.5-199h157.7c12 0 21.6-9.9 21.3-21.9v-1.8C414.6 425 433 392 463.6 374c30.5-17.9 68.3-17.9 98.9 0 30.5 17.9 48.9 51 48.1 86.4v2c-0.3 11.9 9.4 21.7 21.3 21.7l152.7-0.2zM579.3 96.2c221.1 49 227.4 235.4 227.4 235.4-240 0-227.4-235.4-227.4-235.4zM218.8 331.4S225.1 145 446.2 96c0 0.2 12.6 235.4-227.4 235.4z m739.3 55.8c0-247.2-200.4-447.6-447.6-447.6-247 0-447.6 200.6-447.6 447.6C63 634.4 263.3 834.8 510.5 834.8c247.2 0 447.6-200.4 447.6-447.6z m0 0"  horiz-adv-x="1024" />

    
    <glyph glyph-name="xiaoxixinxiduanxintixingyoujiantongzhisixin" unicode="&#59533;" d="M896.170667 99.555556l-276.024889 248.661333-74.126222-50.147556c-20.195556-13.653333-46.705778-13.539556-66.901334 0.227556l-68.835555 46.904889L128.597333 99.555556h767.573334zM910.222222 163.470222V544.398222l-241.521778-163.356444L910.222222 163.441778z m-796.444444-1.365333l247.921778 216.206222L113.777778 547.271111v-385.166222z m-56.888889-62.577778V668.444444a56.888889 56.888889 0 0 0 56.888889 56.888889h796.444444a56.888889 56.888889 0 0 0 56.888889-56.888889v-568.888888a56.888889 56.888889 0 0 0-56.888889-56.888889H113.777778a56.888889 56.888889 0 0 0-56.888889 56.832zM910.222222 613.063111V668.444444H113.777778v-52.337777l397.368889-270.791111a2.673778 2.673778 0 0 1 2.986666-0.113778L910.222222 613.091556z"  horiz-adv-x="1024" />

    
    <glyph glyph-name="rili" unicode="&#58954;" d="M784 736h-112V768c0 17.6-14.4 32-32 32s-32-14.4-32-32v-32H416V768c0 17.6-14.4 32-32 32s-32-14.4-32-32v-32h-112C152 736 80 664 80 576v-448c0-88 72-160 160-160h544c88 0 160 72 160 160V576c0 88-72 160-160 160z m-544-64h112v-32c0-17.6 14.4-32 32-32s32 14.4 32 32v32h192v-32c0-17.6 14.4-32 32-32s32 14.4 32 32v32h112c52.8 0 96-43.2 96-96v-32H144v32c0 52.8 43.2 96 96 96z m544-640H240c-52.8 0-96 43.2-96 96V480h736v-352c0-52.8-43.2-96-96-96zM288 224h64c17.6 0 32-14.4 32-32s-14.4-32-32-32h-64c-17.6 0-32 14.4-32 32s14.4 32 32 32zM480 224h64c17.6 0 32-14.4 32-32s-14.4-32-32-32h-64c-17.6 0-32 14.4-32 32s14.4 32 32 32zM672 224h64c17.6 0 32-14.4 32-32s-14.4-32-32-32h-64c-17.6 0-32 14.4-32 32s14.4 32 32 32zM288 384h64c17.6 0 32-14.4 32-32s-14.4-32-32-32h-64c-17.6 0-32 14.4-32 32s14.4 32 32 32zM480 384h64c17.6 0 32-14.4 32-32s-14.4-32-32-32h-64c-17.6 0-32 14.4-32 32s14.4 32 32 32zM672 384h64c17.6 0 32-14.4 32-32s-14.4-32-32-32h-64c-17.6 0-32 14.4-32 32s14.4 32 32 32z"  horiz-adv-x="1024" />

    
    <glyph glyph-name="tijianjiaofei" unicode="&#59068;" d="M512 896C229.12 896 0 666.88 0 384s229.12-512 512-512 512 229.12 512 512S794.88 896 512 896z m6.4-179.2c42.24 0 76.8-34.56 76.8-76.8s-34.56-76.8-76.8-76.8-76.8 34.56-76.8 76.8 34.56 76.8 76.8 76.8z m252.16-240.64H623.36c-8.96-1.28-19.2-6.4-25.6-21.76-6.4-17.92-3.84-51.2 1.28-78.08l5.12-32 46.08-259.84c3.84-19.2-8.96-38.4-29.44-42.24-19.2-3.84-38.4 10.24-40.96 29.44l-32 180.48s-8.96 48.64-28.16 48.64h-1.28c-17.92 0-28.16-48.64-28.16-48.64l-32-180.48c-3.84-19.2-21.76-33.28-40.96-29.44-19.2 3.84-32 21.76-29.44 42.24l46.08 258.56 5.12 32c3.84 26.88 7.68 60.16 1.28 78.08-6.4 15.36-17.92 20.48-25.6 21.76H266.24c-20.48 0-35.84 16.64-35.84 35.84 0 20.48 16.64 35.84 35.84 35.84h504.32c20.48 0 35.84-16.64 35.84-35.84 0-17.92-16.64-34.56-35.84-34.56z"  horiz-adv-x="1024" />

    
    <glyph glyph-name="yituixue" unicode="&#59029;" d="M734.438025 729.00049c-163.758055 111.901338-386.196081 92.796231-528.119729-49.127416-146.017599-146.017599-161.028755-380.737479-35.480912-545.860185 1.36465-1.36465 4.093951-1.36465 5.458602-1.364651 1.36465 1.36465 1.36465 4.093951 1.364651 5.458602-124.183192 162.393405-109.172037 390.290032 34.116261 534.942981C349.606595 812.244168 567.950669 829.9846239999999 728.979423 720.812588c1.36465-1.36465 5.458602-1.36465 5.458602 1.36465 1.36465 2.729301 1.36465 4.093951 0 6.823252zM251.351762 54.86316199999999c165.122706-124.183192 397.113285-109.172037 543.130884 38.210213C941.864896 239.09097399999996 955.5114 473.810854 829.963558 637.5689090000001c-1.36465 1.36465-4.093951 1.36465-5.458602 1.364651-1.36465-1.36465-1.36465-4.093951-1.364651-5.458602 122.818542-161.028755 109.172037-390.290032-34.116261-534.942981s-371.184926-159.664104-532.21368-36.845563c-1.36465 1.36465-5.458602 1.36465-5.458602-1.36465-2.729301-2.729301-1.36465-5.458602 0-5.458602zM203.941314 88.23258399999997a15.011155 15.011155 0 1 1 21.228609 21.229349 15.011155 15.011155 0 1 1-21.228609-21.229349ZM777.42494 676.4998889999999a15.011155 15.011155 0 1 1 21.228608 21.22935 15.011155 15.011155 0 1 1-21.228608-21.22935ZM754.907782 123.095685l-2.729301-17.740456-12.281854 15.011155-17.740456 1.364651 9.552553 15.011155-5.458601 16.375805 16.375805-5.458602 15.011155 9.552554 1.364651-17.740456 15.011155-12.281855zM670.299454 79.42687000000001l-6.823253-17.740456-10.917203 16.375806h-17.740456l10.917203 13.646504-6.823252 19.105107 17.740456-8.187903 13.646505 10.917204v-17.740456l16.375805-10.917204zM799.941248 209.068664l-5.458602-16.375805-10.917204 16.375805-17.740456-1.36465 9.552553 15.011155-6.823252 17.740456 19.105106-6.823253 13.646505 10.917204v-19.105106l16.375806-9.552554zM864.079819 31.664103999999952c-196.509667-196.509667-518.567176-197.874317-716.441492 0-196.509667 196.509667-196.509667 518.567176 0 716.441493 197.874317 197.874317 518.567176 196.509667 716.441492 0 197.874317-199.238967 197.874317-518.567176 0-716.441493z m-695.971735 695.971736c-185.592463-185.592463-185.592463-491.274166 0-676.866629s491.274166-185.592463 676.866629 0 185.592463 491.274166 0 676.866629-489.909516 186.957113-676.866629 0zM409.651215 286.853741L346.877294 349.627662l-113.265988-113.265989 13.646504-13.646504 99.619484 99.619484 35.480912-35.480912-79.149727-79.149727-20.469757 19.105106-15.011155-13.646504 77.785077-77.785077c13.646505-13.646505 27.293009-13.646505 39.574863-1.36465l83.243678 83.243678c5.458602 5.458602 8.187903 12.281854 8.187903 20.469757-1.36465 6.823252-8.187903 20.469757-25.928359 40.939514l-19.105106-9.552553c15.011155-16.375806 23.199058-27.293009 21.834407-31.386961 0-4.093951-1.36465-8.187903-5.458602-10.917204l-73.691125-73.691125c-5.458602-5.458602-10.917204-5.458602-17.740456 0l-40.939514 40.939514c1.36465-1.36465 94.160882 92.796231 94.160882 92.796232z m-23.199058 113.265988v-19.105107c19.105106 1.36465 35.480912 2.729301 49.127417 1.364651V404.21368l-49.127417-4.093951zM606.160882 349.627662l-27.293009-27.293009c-9.552553-9.552553-17.740456-16.375806-27.29301-21.834408-8.187903-4.093951-17.740456-5.458602-25.928358-5.458602-5.458602 1.36465-8.187903 0-9.552554-1.36465-2.729301-2.729301-1.36465-15.011155 4.093952-36.845563l-20.469757-1.36465c-5.458602 20.469757-5.458602 34.116262-2.729301 43.668815l-42.304164 42.304164-19.105107-19.105106-13.646505 13.646504 34.116262 34.116262 57.315319-57.31532h4.093952c8.187903 0 13.646505 0 19.105106 1.364651 6.823252 2.729301 15.011155 8.187903 24.563709 16.375805l30.02231 30.02231 23.199058 23.199058c8.187903 8.187903 13.646505 13.646505 17.740456 19.105107l10.917203-17.740456-36.845562-35.480912z m-84.608329 54.586018c12.281854 2.729301 24.563708 6.823252 35.480912 8.187903 0 9.552553 1.36465 17.740456-1.36465 25.928359l17.740456 2.729301c1.36465-8.187903 1.36465-17.740456 1.36465-25.928359 10.917204 1.36465 24.563708 2.729301 35.480912 2.729301v-19.105107c-27.293009 0-55.950669-4.093951-87.337629-12.281854l-1.364651 17.740456z m-45.033465 9.552554l10.917204-10.917204 46.398115 46.398116-10.917203 10.917203-46.398116-46.398115z m34.116262 55.950668l-10.917204 10.917204-46.398116-46.398116 10.917204-10.917203 46.398116 46.398115z m-10.917204-79.149726l35.480912-35.480912c6.823252 10.917204 13.646505 21.834407 19.105106 32.751611l15.011155-9.552554c-8.187903-15.011155-20.469757-34.116262-35.480912-54.586018l-15.011155 8.187903c1.36465 4.093951 1.36465 8.187903-1.36465 10.917203l-92.796232 92.796232 73.691125 73.691125 58.67997-58.67997c2.729301 0-57.315319-60.04462-57.315319-60.04462z m184.227812 251.095685l36.845563-36.845563-15.011155-15.011155-23.199058 24.563708-102.348785-102.348784 23.199058-23.199058-15.011155-15.011155-36.845563 36.845562 27.29301 27.29301c-12.281854 2.729301-24.563708 5.458602-35.480912 6.823252l5.458601 19.105106c10.917204-1.36465 24.563708-4.093951 38.210213-8.187902l-5.458601-15.011156 55.950669 55.950669c-4.093951 15.011155-8.187903 31.386961-13.646505 46.398116l20.469757 8.187903c5.458602-15.011155 8.187903-28.65766 9.552553-40.939514l30.02231 31.386961zM600.70228 513.385717l81.879028 80.514378 12.281854-12.281855c-4.093951-15.011155-8.187903-31.386961-15.011155-49.127416l5.458602-5.458602 55.950669 55.950669 13.646504-13.646505-55.950669-55.950669 23.199058-23.199058c8.187903-8.187903 8.187903-17.740456-1.36465-28.657659l-19.105107-19.105107-16.375805 8.187903 17.740456 17.740456c2.729301 2.729301 2.729301 6.823252-1.364651 10.917204L682.581308 498.374562l-60.044621-60.04462-13.646504 13.646504 60.04462 60.044621-10.917204 10.917203c5.458602 15.011155 10.917204 28.65766 13.646505 36.845563L610.254833 499.739213l-10.917203 10.917203 1.36465 2.729301z m-16.375806 90.066931c12.281854-2.729301 24.563708-5.458602 38.210213-9.552553l-5.458601-19.105107c-15.011155 5.458602-27.293009 8.187903-38.210213 9.552553l5.458601 19.105107zM170.837384 344.16905999999994l120.089241 120.089241c1.36465 1.36465 0 4.093951-2.729301 6.823252s-5.458602 4.093951-6.823252 2.729301l-120.089241-120.089241c-1.36465-1.36465 0-4.093951 2.729301-6.823252s5.458602-2.729301 6.823252-2.729301zM439.673526 613.0052009999999l120.08924 120.089241c1.36465 1.36465 0 4.093951-2.729301 6.823252s-5.458602 4.093951-6.823252 2.729301L428.756322 622.5577539999999c-1.36465-1.36465 0-4.093951 2.729301-6.823252 4.093951-2.729301 6.823252-4.093951 8.187903-2.729301zM439.673526 34.39340500000003l413.48909 413.48909c1.36465 1.36465 1.36465 5.458602-1.364651 8.187903s-5.458602 4.093951-8.187903 2.729301L430.120972 45.310609c-1.36465-1.36465-1.36465-5.458602 1.364651-8.187903s6.823252-4.093951 8.187903-2.729301zM386.452157 537.949426l-9.552553-31.386961-19.105106 25.928359-32.751611-2.729301 21.834407 27.293009-9.552553 31.386961 31.38696-9.552554 27.29301 21.834408-2.729301-32.751611 25.928359-19.105107z"  horiz-adv-x="1024" />

    
    <glyph glyph-name="rizhi" unicode="&#59054;" d="M866.1656622-14.87667485999998H313.60623177A127.51860728 127.51860728 0 0 0 186.27842565 112.57833149999999v38.85978498c0 14.62806956 12.14765776 26.71212723 26.71212723 26.71212723 14.62806956 0 26.77572733-12.08405765 26.77572732-26.71212723v-38.85978498c0-40.89499436 33.07215743-73.90355168 73.90355169-73.90355168h552.94103274c40.83139424 0 73.90355168 33.07215743 73.90355169 73.90355168V493.2261434H994.00227087v-380.6478119a128.28181028 128.28181028 0 0 0-127.83660867-127.45500636zM212.99055288 285.18955373999995a26.96652848 26.96652848 0 0 0-26.71212723 26.71212722V469.56683144c0 14.62806956 12.14765776 26.71212723 26.71212723 26.71212722 14.62806956 0 26.77572733-12.08405765 26.77572732-26.71212722v-157.53795024a26.71212723 26.71212723 0 0 0-26.71212722-26.71212723z m727.01506088 208.16379069V665.4557633100001c0 40.89499436-33.07215743 73.9671518-73.90355167 73.96715261H313.16102934c-40.83139424 0-73.90355168-33.07215743-73.90355168-73.9671526v-34.98016658c0-14.62806956-12.08405765-26.71212723-26.71212722-26.71212641a26.13972455 26.13972455 0 0 0-26.26692479 26.20332468v34.98016656C186.27842565 735.09809508 243.13709607 792.40196793 313.66983189 792.40196793h552.94103274C936.57119698 792.40196793 994.00227087 735.4796966 994.00227087 665.01056168v-171.72081737h-53.99665711z m-652.53910654 29.63774064H130.3101593A26.96652848 26.96652848 0 0 0 103.59803207 549.70321229c0 14.62806956 12.14765776 26.77572733 26.71212723 26.77572815h157.09274782c14.62806956 0 26.71212723-12.14765776 26.71212721-26.71212723 0-14.62806956-12.08405765-26.71212723-26.71212721-26.71212721z m0-318.51031565H130.3101593A26.96652848 26.96652848 0 0 0 103.59803207 231.19289663999996c0 14.62806956 12.14765776 26.71212723 26.71212723 26.71212723h157.09274782c14.62806956 0 26.71212723-12.08405765 26.71212721-26.71212723 0-14.56446945-12.08405765-26.71212723-26.71212721-26.71212721z m472.61384992 318.51031566h-319.90952306a26.96652848 26.96652848 0 0 0-26.77572734 26.71212722c0 14.62806956 12.08405765 26.77572733 26.71212723 26.77572813h319.97312317c14.62806956 0 26.71212723-12.14765776 26.71212723-26.71212721 0-14.62806956-12.08405765-26.71212723-26.71212723-26.71212722z m0-159.00075616h-319.90952306a26.96652848 26.96652848 0 0 0-26.77572734 26.71212641c0 14.62806956 12.08405765 26.71212723 26.71212723 26.71212723h319.97312317a26.71212723 26.71212723 0 1 0 0-53.48785456z m0-159.5095595h-319.90952306a26.96652848 26.96652848 0 0 0-26.77572734 26.71212722c0 14.62806956 12.08405765 26.71212723 26.71212723 26.71212723h319.97312317c14.62806956 0 26.71212723-12.08405765 26.71212723-26.71212723 0-14.56446945-12.08405765-26.71212723-26.71212723-26.71212722z"  horiz-adv-x="1102" />

    
    <glyph glyph-name="quanxian" unicode="&#59110;" d="M783.1015625 462.5953125V567.421875c0 130.280625-122.090625 235.8590625-272.690625 235.8590625-150.6028125 0-272.690625-105.5784375-272.690625-235.8590625v-104.8265625c-50.2275 0-90.9234375-35.2340625-90.9234375-78.6609375v-183.43125c0-130.2825 122.115-235.8721875 272.716875-235.8721875H601.278125c150.63 0 272.690625 105.590625 272.690625 235.87125V383.9353125c0 43.4259375-40.66875 78.66-90.868125 78.66zM298.3278125 567.421875c0 101.330625 94.93875 183.4321875 212.083125 183.4321875 117.1425 0 212.08125-82.1025 212.08125-183.4321875v-104.8265625h-60.579375V567.3121874999999c0 72.37875-67.845 131.0465625-151.501875 131.0465625-83.686875 0-151.5046875-58.66875-151.5046875-131.0465625v-104.716875h-60.5784375V567.421875z m333.2690625 0v-104.8265625H389.2240625V567.421875c0 57.90375 54.24375 104.8265625 121.186875 104.8265625 66.9421875-0.0009375 121.1859375-46.9228125 121.1859375-104.8265625z m181.7925-366.91875c0-101.165625-95.15625-183.43125-212.109375-183.43125H419.5128125c-116.925 0-212.083125 82.265625-212.083125 183.43125V383.93437500000005c0 14.4759375 13.546875 26.221875 30.290625 26.221875h545.3803125c16.71375 0 30.2878125-11.7459375 30.2878125-26.221875V200.50312499999995zM510.411875 305.32875c-33.459375 0-60.6075-23.49-60.6075-52.4409375 0-15.894375 10.10625-46.1034375 20.210625-69.975 8.248125-19.5 18.628125-34.7953125 40.3959375-34.7953125 23.68125 0 32.146875 15.185625 40.42125 34.5225 10.215 23.9259375 20.184375 54.298125 20.184375 70.24875 0 28.95-27.1471875 52.44-60.6046875 52.44z"  horiz-adv-x="1024" />

    
    <glyph glyph-name="dizhi" unicode="&#58905;" d="M512-58.2c-17.3 0-34 7.3-45.9 20C372.6 62.3 155 312.7 155 469.2c0 196.9 160.1 357 357 357s357-160.1 357-357c0-156.5-217.6-406.9-311.1-507.3-11.9-12.8-28.6-20.1-45.9-20.1z m0 842.4c-173.7 0-315-141.3-315-315 0-145.5 229.5-403.2 299.9-478.7 8-8.5 22.3-8.6 30.3 0C597.5 66 827 323.6 827 469.2c0 173.7-141.3 315-315 315zM511.7 303.7c-104.2 0-189 84.8-189 189s84.8 189 189 189 189-84.8 189-189-84.8-189-189-189z m0 336c-81 0-147-65.9-147-147s66-147 147-147 147 65.9 147 147-65.9 147-147 147z"  horiz-adv-x="1024" />

    
    <glyph glyph-name="bylx" unicode="&#58881;" d="M445.539902 491.095415L445.539902 398.56078C445.539902 398.56078 406.328195 363.76975600000003 324.707902 363.76975600000003 243.112585 363.76975600000003 215.989073 398.56078 215.989073 398.56078L215.989073 491.095415C215.989073 491.095415 253.702244 535.7767799999999 330.851902 535.7767799999999 408.026537 535.7767799999999 445.739707 491.095415 445.539902 491.095415ZM232.722732 410.349268C232.722732 395.588683 275.955512 383.80019500000003 329.378341 383.80019500000003 382.801171 383.80019500000003 426.033951 395.588683 426.033951 410.349268 426.033951 424.885073 382.801171 436.698537 329.378341 436.698537 275.955512 436.698537 232.722732 424.885073 232.722732 410.349268ZM71.005659 557.28078L337.020878 687.953171 581.182439 555.8072199999999 466.094829 505.206634 466.094829 505.206634C466.094829 505.206634 410.549073 567.171122 333.824 567.171122 259.022049 567.171122 185.044293 505.206634 185.044293 505.206634L143.484878 524.1880980000001 143.484878 468.542439C150.053463 465.994927 154.723902 459.476293 154.723902 451.459122 154.723902 443.441951 149.853659 436.698537 143.285073 434.375805L155.573073 396.862439 119.333463 396.862439 131.621463 434.600585C125.702244 437.347902 121.45639 443.866537 121.45639 451.259317 121.45639 458.627122 125.477463 464.945951 131.196878 467.693268L131.196878 529.457951 71.005659 557.28078ZM1130.995512 400.858537L1130.995512 790.203317C1130.995512 825.818537 1099.001756 852.36761 1063.161756 852.36761L109.368195 852.36761C73.553171 852.36761 44.306732 825.818537 44.306732 790.203317L44.306732 162.66614600000003C44.306732 129.37365899999998 70.156488 101.55082900000002 102.79961 98.179122L102.79961 98.179122 594.31961 98.40390200000002C596.442537 83.64331700000002 599.414634 69.082537 603.235902 54.971317L78.423415 54.971317C34.541268 59.61677999999995 0 96.70556099999999 0 141.61170700000002L0 812.531512C0 860.38478 39.211707 896 87.314732 896L1084.366049 896C1132.469073 896 1175.502049 860.38478 1175.502049 812.531512L1175.502049 359.77365899999995C1161.940293 374.734049 1147.10478 388.420683 1130.995512 400.858537ZM648.167024 691.324878L983.489561 691.324878C997.475902 691.324878 1008.689951 679.960976 1008.689951 666.249366 1008.689951 652.337951 997.475902 641.173854 983.489561 641.173854L648.167024 641.173854C634.180683 641.173854 622.941659 652.337951 622.941659 666.249366 622.941659 680.1607799999999 634.180683 691.324878 648.167024 691.324878ZM648.167024 566.546732L983.489561 566.546732C997.475902 566.546732 1008.689951 555.382634 1008.689951 541.47122 1008.689951 527.559805 997.475902 516.395707 983.489561 516.395707L648.167024 516.395707C634.180683 516.395707 622.941659 527.559805 622.941659 541.47122 622.941659 555.382634 634.180683 566.546732 648.167024 566.546732ZM648.167024 441.96839L738.678634 441.96839C752.664976 441.96839 763.879024 430.804293 763.879024 416.892878 763.879024 402.981463 752.440195 391.79239 738.678634 391.79239L648.167024 391.79239C634.180683 391.79239 622.941659 402.981463 622.941659 416.892878 622.941659 430.804293 634.180683 441.96839 648.167024 441.96839ZM946.176 370.28839000000005C1085.639805 370.28839000000005 1198.829268 258.79726800000003 1198.829268 121.15668300000004 1198.829268-16.483901999999944 1085.639805-128 946.176-128 806.712195-128 693.522732-16.483901999999944 693.522732 121.15668300000004 693.522732 258.79726800000003 806.487415 370.28839000000005 946.176 370.28839000000005ZM788.055415 64.037463L895.300683-40.31063400000005C908.437854-53.173073000000045 929.841951-53.173073000000045 943.004098-40.31063400000005L943.004098-40.31063400000005 1127.82361 139.48878000000002C1140.96078 152.35122 1140.96078 173.00604899999996 1127.82361 185.86848799999996 1114.686439 198.73092699999995 1093.257366 198.73092699999995 1080.120195 185.86848799999996L919.252293 29.04663400000004 835.733854 110.39219500000002C822.596683 123.25463400000001 801.192585 123.25463400000001 788.055415 110.39219500000002 774.918244 97.75453700000003 774.918244 76.899902 788.055415 64.037463Z"  horiz-adv-x="1199" />

    
    <glyph glyph-name="youhui" unicode="&#58889;" d="M910.222222 355.783111v-56.888889h-56.888889v170.666667h56.888889v-113.777778z m-186.766222-108.885333H413.582222c-17.692444 0-15.587556 1.763556-15.587555 19.228444s-2.104889 31.573333 15.587555 31.573334h309.873778c17.692444 0 18.659556-14.108444 18.659556-31.573334s-1.024-19.228444-18.659556-19.228444z m0 221.980444H413.582222c-17.692444 0-15.587556 11.036444-15.587555 28.444445s-2.104889 28.444444 15.587555 28.444444h309.873778c17.692444 0 18.659556-11.036444 18.659556-28.444444s-1.024-28.444444-18.659556-28.444445zM967.111111 526.449778v56.888889h-0.967111V753.550222H281.486222v-739.100444h684.714667v170.666666H967.111111v56.888889h-56.888889v56.888889h56.888889v-12.003555c10.24-5.518222 20.935111-10.012444 31.914667-12.515556a31.687111 31.687111 0 0 0 24.974222-30.833778v-233.016889a53.475556 53.475556 0 0 0-53.76-53.020444H53.646222A53.475556 53.475556 0 0 0 0 10.581333V242.346667c0 15.36 11.150222 28.444444 26.453333 31.118222 10.638222 1.877333 20.764444 5.916444 30.435556 10.581333v14.848h56.888889v-56.888889H56.888889v-56.888889h0.910222v-170.666666h168.96v170.666666H227.555556v398.222223h-0.796445V753.550222h-168.96v-170.211555H56.888889v-56.888889h56.888889v-56.888889H56.888889v-4.551111a115.768889 115.768889 0 0 1-30.435556 10.581333C11.150222 478.321778 0 498.517333 0 513.820444V757.475556c0 29.240889 24.007111 52.906667 53.646222 52.963555h916.593778a53.475556 53.475556 0 0 0 53.76-52.963555v-241.379556c0-14.734222-10.410667-38.172444-24.974222-41.472a126.691556 126.691556 0 0 1-31.914667-12.401778v7.338667h-56.888889v56.888889h56.888889z m-796.444444-113.777778v-113.777778H113.777778v170.666667h56.888889v-56.888889z"  horiz-adv-x="1024" />

    
    <glyph glyph-name="shenhe1" unicode="&#58942;" d="M696.779607 695.920966H195.707769c-12.239541 0-21.981217-8.867423-21.981217-19.858031S183.468228 656.204903 195.707769 656.204903h501.071838c12.239541 0 21.981217 8.867423 21.981217 19.858032s-9.741676 19.858031-21.981217 19.858031m21.981217-163.235517c0 10.990609-9.741676 19.858031-21.981217 19.858032H195.707769c-12.239541 0-21.981217-8.867423-21.981217-19.858032s9.741676-19.858031 21.981217-19.858031h501.071838c12.239541-0.37468 21.981217 8.992316 21.981217 19.858031M195.707769 409.540676c-12.239541 0-21.981217-8.867423-21.981217-19.858032s9.741676-19.858031 21.981217-19.858031h321.849982c12.239541 0 21.981217 8.867423 21.981217 19.858031s-9.741676 19.858031-21.981217 19.858032H195.707769z m251.784852-143.377485H195.707769c-12.239541 0-21.981217-8.867423-21.981217-19.858032s9.741676-19.858031 21.981217-19.858031h251.784852c12.239541 0 21.981217 8.867423 21.981217 19.858031s-9.741676 19.858031-21.981217 19.858032m439.999024-155.617027h-50.207098l-98.291011 122.770094c40.465423 12.614221 69.565557 46.83498 69.565557 87.300403 0 51.081351-46.83498 92.795707-104.160996 92.795706s-104.160995-41.714355-104.160995-92.795706c0-40.465423 29.100134-74.686181 69.565557-87.300403l-98.291011-122.770094h-50.207099c-25.353336 0-45.960727-18.609099-45.960727-40.964996v-66.193438c0-22.730577 20.607391-40.964996 45.960727-40.964996h366.187096c25.353336 0 45.960727 18.609099 45.960727 40.964996v66.193438c0 22.355897-20.732284 40.964996-45.960727 40.964996M639.828272 320.616661c0 31.598 29.100134 57.825588 64.569825 57.825588 35.844371 0 64.569826-25.728016 64.569826-57.825588 0-31.598-28.725454-57.326015-64.070253-57.825589h-1.248932c-35.095012 0.37468-63.820466 26.102695-63.820466 57.825589m58.699841-112.653739l11.365289 0.874253 78.932552-98.291011H620.469813l78.0583 97.416758zM894.235882 3.38773c0-3.372119-2.997439-5.869984-6.744237-5.869984H521.304549c-3.372119 0-6.744237 2.497866-6.744237 5.869984V69.206489c0 3.372119 2.997439 5.869984 6.744237 5.869984h365.687523c3.372119 0 6.744237-2.497866 6.744237-5.869984l0.499573-65.818759zM129.014758 77.199658V765.111843c0 3.372119 2.997439 5.869984 6.744237 5.869984h626.339798c3.746798 0 6.744237-2.497866 6.744237-5.869984v-330.217832c14.737407-6.744237 27.851201-15.61166 39.216489-26.102695V765.111843c0 22.730577-20.607391 40.964996-45.960726 40.964996H135.758995C110.405659 806.076839 89.798268 787.46774 89.798268 765.111843v-687.912185c0-22.730577 20.607391-40.964996 45.960727-40.964995h300.368338v33.346505c0 0.37468 0 1.248933 0.374679 1.623613H135.758995c-3.746798 0-6.744237 2.622759-6.744237 5.994877"  horiz-adv-x="1024" />

    


  </font>
</defs>
</svg>
